<svg width="1438" height="494" viewBox="0 0 1438 494" fill="none" xmlns="http://www.w3.org/2000/svg">
<rect width="1438" height="494" fill="white"/>
<path d="M269.558 120.54H276.29C280.082 120.54 282.602 121.176 283.85 122.448C285.098 123.72 285.722 125.256 285.722 127.056C285.722 128.256 285.458 129.396 284.93 130.476C284.402 131.532 283.562 132.324 282.41 132.852C284.114 133.284 285.362 134.04 286.154 135.12C286.97 136.2 287.378 137.472 287.378 138.936C287.378 140.472 287.138 141.816 286.658 142.968C286.178 144.12 285.182 145.08 283.67 145.848C282.158 146.616 279.974 147 277.118 147H269.558V120.54ZM276.938 131.772C278.642 131.772 279.854 131.364 280.574 130.548C281.294 129.708 281.654 128.652 281.654 127.38C281.654 125.1 280.022 123.96 276.758 123.96H273.518V131.772H276.938ZM277.658 143.616C279.842 143.616 281.306 143.184 282.05 142.32C282.818 141.432 283.202 140.316 283.202 138.972C283.202 137.7 282.77 136.716 281.906 136.02C281.042 135.324 279.734 134.976 277.982 134.976H273.518V143.616H277.658ZM299.653 147.36C297.685 147.36 296.041 146.976 294.721 146.208C293.401 145.416 292.429 144.372 291.805 143.076C291.181 141.756 290.869 140.316 290.869 138.756C290.869 137.004 291.229 135.468 291.949 134.148C292.693 132.828 293.713 131.82 295.009 131.124C296.305 130.404 297.769 130.044 299.401 130.044C301.945 130.044 303.829 130.752 305.053 132.168C306.301 133.56 306.925 135.528 306.925 138.072C306.925 138.72 306.889 139.392 306.817 140.088H294.937C295.201 141.552 295.717 142.608 296.485 143.256C297.277 143.904 298.369 144.228 299.761 144.228C300.913 144.228 301.861 144.132 302.605 143.94C303.349 143.748 304.033 143.484 304.657 143.148L305.845 145.92C305.245 146.304 304.429 146.64 303.397 146.928C302.365 147.216 301.117 147.36 299.653 147.36ZM303.145 137.388C303.169 135.9 302.845 134.856 302.173 134.256C301.501 133.632 300.541 133.32 299.293 133.32C296.773 133.32 295.321 134.676 294.937 137.388H303.145ZM311.001 130.476H314.889V133.464C315.417 132.336 316.185 131.484 317.193 130.908C318.225 130.332 319.401 130.044 320.721 130.044C323.673 130.068 325.485 131.088 326.157 133.104C326.685 132.168 327.477 131.424 328.533 130.872C329.589 130.32 330.705 130.044 331.881 130.044C333.609 130.044 334.917 130.38 335.805 131.052C336.693 131.7 337.281 132.636 337.569 133.86C337.881 135.06 338.037 136.68 338.037 138.72V147H334.113V138.684C334.113 136.74 333.909 135.348 333.501 134.508C333.117 133.668 332.361 133.248 331.233 133.248C329.721 133.248 328.569 133.764 327.777 134.796C327.009 135.804 326.625 137.136 326.625 138.792V147H322.737V138.108C322.737 136.836 322.689 135.888 322.593 135.264C322.497 134.64 322.233 134.148 321.801 133.788C321.369 133.428 320.673 133.248 319.713 133.248C318.873 133.248 318.081 133.5 317.337 134.004C316.617 134.508 316.029 135.192 315.573 136.056C315.141 136.896 314.925 137.808 314.925 138.792V147H311.001V130.476ZM344.398 136.236H356.746V139.692H344.398V136.236ZM360.651 130.476H365.079L368.643 137.928L369.795 140.916L370.947 137.928L374.475 130.476H378.795L370.119 147H369.363L360.651 130.476ZM381.567 130.476H385.599V147H381.567V130.476ZM383.547 127.38C382.803 127.38 382.179 127.128 381.675 126.624C381.171 126.12 380.919 125.496 380.919 124.752C380.919 124.08 381.171 123.504 381.675 123.024C382.179 122.544 382.803 122.304 383.547 122.304C384.267 122.304 384.879 122.544 385.383 123.024C385.887 123.504 386.139 124.08 386.139 124.752C386.139 125.496 385.887 126.12 385.383 126.624C384.903 127.128 384.291 127.38 383.547 127.38ZM390.982 130.476H394.798L394.834 133.5C395.29 132.492 396.01 131.664 396.994 131.016C397.978 130.368 399.13 130.044 400.45 130.044C402.154 130.044 403.462 130.404 404.374 131.124C405.286 131.82 405.898 132.804 406.21 134.076C406.522 135.348 406.678 137.004 406.678 139.044V147H402.79V139.152C402.79 137.064 402.586 135.564 402.178 134.652C401.77 133.716 400.93 133.248 399.658 133.248C398.938 133.248 398.206 133.476 397.462 133.932C396.718 134.364 396.094 135 395.59 135.84C395.11 136.68 394.87 137.664 394.87 138.792V147H390.982V130.476ZM418.997 147.36C417.509 147.36 416.129 147.012 414.857 146.316C413.609 145.596 412.601 144.588 411.833 143.292C411.089 141.972 410.717 140.436 410.717 138.684C410.717 136.068 411.449 133.98 412.913 132.42C414.377 130.836 416.357 130.044 418.853 130.044C420.245 130.044 421.517 130.392 422.669 131.088C423.821 131.76 424.601 132.576 425.009 133.536L424.829 130.728V120.54H428.645V147H424.937L424.865 144.084C424.457 144.948 423.713 145.716 422.633 146.388C421.553 147.036 420.341 147.36 418.997 147.36ZM419.645 144.084C421.013 144.084 422.165 143.616 423.101 142.68C424.037 141.72 424.505 140.472 424.505 138.936V138.684C424.505 137.652 424.289 136.728 423.857 135.912C423.425 135.096 422.837 134.46 422.093 134.004C421.349 133.548 420.533 133.32 419.645 133.32C418.109 133.32 416.921 133.824 416.081 134.832C415.241 135.816 414.821 137.1 414.821 138.684C414.821 140.292 415.229 141.6 416.045 142.608C416.885 143.592 418.085 144.084 419.645 144.084ZM441.506 147.36C439.802 147.36 438.29 146.976 436.97 146.208C435.65 145.44 434.63 144.396 433.91 143.076C433.19 141.756 432.83 140.292 432.83 138.684C432.83 137.1 433.178 135.648 433.874 134.328C434.594 133.008 435.614 131.964 436.934 131.196C438.254 130.428 439.778 130.044 441.506 130.044C443.234 130.044 444.746 130.428 446.042 131.196C447.362 131.964 448.37 133.008 449.066 134.328C449.786 135.648 450.146 137.1 450.146 138.684C450.146 140.292 449.786 141.756 449.066 143.076C448.346 144.396 447.326 145.44 446.006 146.208C444.71 146.976 443.21 147.36 441.506 147.36ZM441.614 144.192C443.006 144.192 444.098 143.676 444.89 142.644C445.706 141.612 446.114 140.316 446.114 138.756C446.114 137.196 445.682 135.888 444.818 134.832C443.954 133.752 442.814 133.212 441.398 133.212C440.03 133.212 438.926 133.74 438.086 134.796C437.27 135.852 436.862 137.172 436.862 138.756C436.862 140.292 437.306 141.588 438.194 142.644C439.082 143.676 440.222 144.192 441.614 144.192ZM459.986 147.36C458.834 147.36 457.634 147.216 456.386 146.928C455.162 146.616 454.286 146.256 453.758 145.848L455.054 142.788C456.494 143.796 458.138 144.3 459.986 144.3C461.834 144.3 462.758 143.76 462.758 142.68C462.758 142.2 462.566 141.828 462.182 141.564C461.798 141.3 461.114 140.988 460.13 140.628L458.762 140.124C457.322 139.548 456.182 138.864 455.342 138.072C454.502 137.256 454.082 136.188 454.082 134.868C454.082 133.356 454.67 132.18 455.846 131.34C457.046 130.476 458.642 130.044 460.634 130.044C461.618 130.044 462.578 130.152 463.514 130.368C464.474 130.584 465.206 130.86 465.71 131.196L464.306 134.292C463.994 133.98 463.49 133.716 462.794 133.5C462.122 133.26 461.366 133.14 460.526 133.14C458.822 133.14 457.97 133.656 457.97 134.688C457.97 135.264 458.198 135.708 458.654 136.02C459.11 136.308 459.854 136.632 460.886 136.992C460.982 137.016 461.354 137.148 462.002 137.388C463.538 137.988 464.678 138.672 465.422 139.44C466.166 140.208 466.538 141.192 466.538 142.392C466.538 144.024 465.914 145.26 464.666 146.1C463.442 146.94 461.882 147.36 459.986 147.36ZM486.708 147.36C485.22 147.36 483.84 147.012 482.568 146.316C481.32 145.596 480.312 144.588 479.544 143.292C478.8 141.972 478.428 140.436 478.428 138.684C478.428 136.956 478.752 135.444 479.4 134.148C480.072 132.852 481.02 131.844 482.244 131.124C483.468 130.404 484.908 130.044 486.564 130.044C487.524 130.044 488.424 130.212 489.264 130.548C490.104 130.884 490.812 131.304 491.388 131.808C491.964 132.288 492.348 132.768 492.54 133.248L492.612 130.476H496.32V147H492.648L492.576 144.084C492.168 144.948 491.424 145.716 490.344 146.388C489.264 147.036 488.052 147.36 486.708 147.36ZM487.356 144.12C488.724 144.12 489.876 143.652 490.812 142.716C491.748 141.756 492.216 140.508 492.216 138.972V138.72C492.216 137.688 492 136.764 491.568 135.948C491.136 135.132 490.548 134.496 489.804 134.04C489.06 133.584 488.244 133.356 487.356 133.356C485.82 133.356 484.632 133.86 483.792 134.868C482.952 135.852 482.532 137.136 482.532 138.72C482.532 140.328 482.94 141.636 483.756 142.644C484.596 143.628 485.796 144.12 487.356 144.12ZM481.524 119.856L484.944 117.66L490.452 125.904L487.824 127.38L481.524 119.856ZM510.444 130.476H514.188V133.536C515.508 131.208 517.572 130.044 520.38 130.044C522.708 130.044 524.592 130.788 526.032 132.276C527.472 133.74 528.192 135.864 528.192 138.648C528.192 140.376 527.832 141.9 527.112 143.22C526.416 144.54 525.456 145.56 524.232 146.28C523.032 147 521.688 147.36 520.2 147.36C518.808 147.36 517.596 147.12 516.564 146.64C515.556 146.136 514.764 145.428 514.188 144.516L514.224 155.748H510.444V130.476ZM519.3 144.084C520.86 144.084 522.06 143.592 522.9 142.608C523.74 141.6 524.16 140.316 524.16 138.756C524.16 137.124 523.74 135.828 522.9 134.868C522.084 133.884 520.884 133.392 519.3 133.392C518.436 133.392 517.62 133.608 516.852 134.04C516.108 134.448 515.508 135.048 515.052 135.84C514.62 136.608 514.404 137.508 514.404 138.54V138.792C514.404 139.824 514.62 140.748 515.052 141.564C515.508 142.356 516.108 142.98 516.852 143.436C517.596 143.868 518.412 144.084 519.3 144.084ZM532.669 120.54H536.521V147H532.669V120.54ZM549.286 147.36C547.798 147.36 546.418 147.012 545.146 146.316C543.898 145.596 542.89 144.588 542.122 143.292C541.378 141.972 541.006 140.436 541.006 138.684C541.006 136.956 541.33 135.444 541.978 134.148C542.65 132.852 543.598 131.844 544.822 131.124C546.046 130.404 547.486 130.044 549.142 130.044C550.102 130.044 551.002 130.212 551.842 130.548C552.682 130.884 553.39 131.304 553.966 131.808C554.542 132.288 554.926 132.768 555.118 133.248L555.19 130.476H558.898V147H555.226L555.154 144.084C554.746 144.948 554.002 145.716 552.922 146.388C551.842 147.036 550.63 147.36 549.286 147.36ZM549.934 144.12C551.302 144.12 552.454 143.652 553.39 142.716C554.326 141.756 554.794 140.508 554.794 138.972V138.72C554.794 137.688 554.578 136.764 554.146 135.948C553.714 135.132 553.126 134.496 552.382 134.04C551.638 133.584 550.822 133.356 549.934 133.356C548.398 133.356 547.21 133.86 546.37 134.868C545.53 135.852 545.11 137.136 545.11 138.72C545.11 140.328 545.518 141.636 546.334 142.644C547.174 143.628 548.374 144.12 549.934 144.12ZM565.566 133.644H562.65V130.476H565.566V123.744L569.49 122.88V130.476H573.306V133.644H569.49V147H565.566V133.644ZM583.774 147.36C582.286 147.36 580.906 147.012 579.634 146.316C578.386 145.596 577.378 144.588 576.61 143.292C575.866 141.972 575.494 140.436 575.494 138.684C575.494 136.956 575.818 135.444 576.466 134.148C577.138 132.852 578.086 131.844 579.31 131.124C580.534 130.404 581.974 130.044 583.63 130.044C584.59 130.044 585.49 130.212 586.33 130.548C587.17 130.884 587.878 131.304 588.454 131.808C589.03 132.288 589.414 132.768 589.606 133.248L589.678 130.476H593.386V147H589.714L589.642 144.084C589.234 144.948 588.49 145.716 587.41 146.388C586.33 147.036 585.118 147.36 583.774 147.36ZM584.422 144.12C585.79 144.12 586.942 143.652 587.878 142.716C588.814 141.756 589.282 140.508 589.282 138.972V138.72C589.282 137.688 589.066 136.764 588.634 135.948C588.202 135.132 587.614 134.496 586.87 134.04C586.126 133.584 585.31 133.356 584.422 133.356C582.886 133.356 581.698 133.86 580.858 134.868C580.018 135.852 579.598 137.136 579.598 138.72C579.598 140.328 580.006 141.636 580.822 142.644C581.662 143.628 582.862 144.12 584.422 144.12ZM600.163 133.572H597.499V130.476H600.163V126.912C600.163 124.752 600.679 123.084 601.711 121.908C602.767 120.708 604.303 120.108 606.319 120.108C607.135 120.108 608.059 120.336 609.091 120.792L608.335 124.464C608.167 124.272 607.903 124.092 607.543 123.924C607.207 123.732 606.835 123.636 606.427 123.636C604.819 123.636 604.003 124.68 603.979 126.768V130.476H607.867V133.572H603.979V147H600.163V133.572ZM619.362 147.36C617.658 147.36 616.146 146.976 614.826 146.208C613.506 145.44 612.486 144.396 611.766 143.076C611.046 141.756 610.686 140.292 610.686 138.684C610.686 137.1 611.034 135.648 611.73 134.328C612.45 133.008 613.47 131.964 614.79 131.196C616.11 130.428 617.634 130.044 619.362 130.044C621.09 130.044 622.602 130.428 623.898 131.196C625.218 131.964 626.226 133.008 626.922 134.328C627.642 135.648 628.002 137.1 628.002 138.684C628.002 140.292 627.642 141.756 626.922 143.076C626.202 144.396 625.182 145.44 623.862 146.208C622.566 146.976 621.066 147.36 619.362 147.36ZM619.47 144.192C620.862 144.192 621.954 143.676 622.746 142.644C623.562 141.612 623.97 140.316 623.97 138.756C623.97 137.196 623.538 135.888 622.674 134.832C621.81 133.752 620.67 133.212 619.254 133.212C617.886 133.212 616.782 133.74 615.942 134.796C615.126 135.852 614.718 137.172 614.718 138.756C614.718 140.292 615.162 141.588 616.05 142.644C616.938 143.676 618.078 144.192 619.47 144.192ZM632.046 130.476H635.934V133.716C636.318 132.612 636.942 131.724 637.806 131.052C638.67 130.38 639.654 130.044 640.758 130.044C641.526 130.044 642.054 130.116 642.342 130.26L641.802 134.184C641.586 134.04 641.118 133.968 640.398 133.968C639.27 133.968 638.238 134.328 637.302 135.048C636.39 135.768 635.934 136.92 635.934 138.504V147H632.046V130.476ZM645.091 130.476H648.979V133.464C649.507 132.336 650.275 131.484 651.283 130.908C652.315 130.332 653.491 130.044 654.811 130.044C657.763 130.068 659.575 131.088 660.247 133.104C660.775 132.168 661.567 131.424 662.623 130.872C663.679 130.32 664.795 130.044 665.971 130.044C667.699 130.044 669.007 130.38 669.895 131.052C670.783 131.7 671.371 132.636 671.659 133.86C671.971 135.06 672.127 136.68 672.127 138.72V147H668.203V138.684C668.203 136.74 667.999 135.348 667.591 134.508C667.207 133.668 666.451 133.248 665.323 133.248C663.811 133.248 662.659 133.764 661.867 134.796C661.099 135.804 660.715 137.136 660.715 138.792V147H656.827V138.108C656.827 136.836 656.779 135.888 656.683 135.264C656.587 134.64 656.323 134.148 655.891 133.788C655.459 133.428 654.763 133.248 653.803 133.248C652.963 133.248 652.171 133.5 651.427 134.004C650.707 134.508 650.119 135.192 649.663 136.056C649.231 136.896 649.015 137.808 649.015 138.792V147H645.091V130.476ZM684.391 147.36C682.903 147.36 681.523 147.012 680.251 146.316C679.003 145.596 677.995 144.588 677.227 143.292C676.483 141.972 676.111 140.436 676.111 138.684C676.111 136.956 676.435 135.444 677.083 134.148C677.755 132.852 678.703 131.844 679.927 131.124C681.151 130.404 682.591 130.044 684.247 130.044C685.207 130.044 686.107 130.212 686.947 130.548C687.787 130.884 688.495 131.304 689.071 131.808C689.647 132.288 690.031 132.768 690.223 133.248L690.295 130.476H694.003V147H690.331L690.259 144.084C689.851 144.948 689.107 145.716 688.027 146.388C686.947 147.036 685.735 147.36 684.391 147.36ZM685.039 144.12C686.407 144.12 687.559 143.652 688.495 142.716C689.431 141.756 689.899 140.508 689.899 138.972V138.72C689.899 137.688 689.683 136.764 689.251 135.948C688.819 135.132 688.231 134.496 687.487 134.04C686.743 133.584 685.927 133.356 685.039 133.356C683.503 133.356 682.315 133.86 681.475 134.868C680.635 135.852 680.215 137.136 680.215 138.72C680.215 140.328 680.623 141.636 681.439 142.644C682.279 143.628 683.479 144.12 685.039 144.12ZM715.364 147.36C713.876 147.36 712.496 147.012 711.224 146.316C709.976 145.596 708.968 144.588 708.2 143.292C707.456 141.972 707.084 140.436 707.084 138.684C707.084 136.068 707.816 133.98 709.28 132.42C710.744 130.836 712.724 130.044 715.22 130.044C716.612 130.044 717.884 130.392 719.036 131.088C720.188 131.76 720.968 132.576 721.376 133.536L721.196 130.728V120.54H725.012V147H721.304L721.232 144.084C720.824 144.948 720.08 145.716 719 146.388C717.92 147.036 716.708 147.36 715.364 147.36ZM716.012 144.084C717.38 144.084 718.532 143.616 719.468 142.68C720.404 141.72 720.872 140.472 720.872 138.936V138.684C720.872 137.652 720.656 136.728 720.224 135.912C719.792 135.096 719.204 134.46 718.46 134.004C717.716 133.548 716.9 133.32 716.012 133.32C714.476 133.32 713.288 133.824 712.448 134.832C711.608 135.816 711.188 137.1 711.188 138.684C711.188 140.292 711.596 141.6 712.412 142.608C713.252 143.592 714.452 144.084 716.012 144.084ZM737.981 147.36C736.013 147.36 734.369 146.976 733.049 146.208C731.729 145.416 730.757 144.372 730.133 143.076C729.509 141.756 729.197 140.316 729.197 138.756C729.197 137.004 729.557 135.468 730.277 134.148C731.021 132.828 732.041 131.82 733.337 131.124C734.633 130.404 736.097 130.044 737.729 130.044C740.273 130.044 742.157 130.752 743.381 132.168C744.629 133.56 745.253 135.528 745.253 138.072C745.253 138.72 745.217 139.392 745.145 140.088H733.265C733.529 141.552 734.045 142.608 734.813 143.256C735.605 143.904 736.697 144.228 738.089 144.228C739.241 144.228 740.189 144.132 740.933 143.94C741.677 143.748 742.361 143.484 742.985 143.148L744.173 145.92C743.573 146.304 742.757 146.64 741.725 146.928C740.693 147.216 739.445 147.36 737.981 147.36ZM741.473 137.388C741.497 135.9 741.173 134.856 740.501 134.256C739.829 133.632 738.869 133.32 737.621 133.32C735.101 133.32 733.649 134.676 733.265 137.388H741.473ZM765.462 147.36C763.974 147.36 762.594 147.012 761.322 146.316C760.074 145.596 759.066 144.588 758.298 143.292C757.554 141.972 757.182 140.436 757.182 138.684C757.182 136.956 757.506 135.444 758.154 134.148C758.826 132.852 759.774 131.844 760.998 131.124C762.222 130.404 763.662 130.044 765.318 130.044C766.278 130.044 767.178 130.212 768.018 130.548C768.858 130.884 769.566 131.304 770.142 131.808C770.718 132.288 771.102 132.768 771.294 133.248L771.366 130.476H775.074V147H771.402L771.33 144.084C770.922 144.948 770.178 145.716 769.098 146.388C768.018 147.036 766.806 147.36 765.462 147.36ZM766.11 144.12C767.478 144.12 768.63 143.652 769.566 142.716C770.502 141.756 770.97 140.508 770.97 138.972V138.72C770.97 137.688 770.754 136.764 770.322 135.948C769.89 135.132 769.302 134.496 768.558 134.04C767.814 133.584 766.998 133.356 766.11 133.356C764.574 133.356 763.386 133.86 762.546 134.868C761.706 135.852 761.286 137.136 761.286 138.72C761.286 140.328 761.694 141.636 762.51 142.644C763.35 143.628 764.55 144.12 766.11 144.12ZM780.194 130.476H784.082V133.716C784.466 132.612 785.09 131.724 785.954 131.052C786.818 130.38 787.802 130.044 788.906 130.044C789.674 130.044 790.202 130.116 790.49 130.26L789.95 134.184C789.734 134.04 789.266 133.968 788.546 133.968C787.418 133.968 786.386 134.328 785.45 135.048C784.538 135.768 784.082 136.92 784.082 138.504V147H780.194V130.476ZM794.68 133.644H791.764V130.476H794.68V123.744L798.604 122.88V130.476H802.42V133.644H798.604V147H794.68V133.644ZM805.867 130.476H809.899V147H805.867V130.476ZM807.847 127.38C807.103 127.38 806.479 127.128 805.975 126.624C805.471 126.12 805.219 125.496 805.219 124.752C805.219 124.08 805.471 123.504 805.975 123.024C806.479 122.544 807.103 122.304 807.847 122.304C808.567 122.304 809.179 122.544 809.683 123.024C810.187 123.504 810.439 124.08 810.439 124.752C810.439 125.496 810.187 126.12 809.683 126.624C809.203 127.128 808.591 127.38 807.847 127.38ZM823.311 155.64C822.087 155.64 820.875 155.472 819.675 155.136C818.499 154.8 817.659 154.488 817.155 154.2L818.019 150.6C819.603 151.632 821.331 152.148 823.203 152.148C824.643 152.148 825.855 151.8 826.839 151.104C827.823 150.408 828.327 149.052 828.351 147.036V144.084C827.847 145.02 827.031 145.8 825.903 146.424C824.775 147.048 823.527 147.36 822.159 147.36C820.719 147.36 819.399 147.012 818.199 146.316C816.999 145.596 816.051 144.576 815.355 143.256C814.659 141.936 814.311 140.4 814.311 138.648C814.311 136.968 814.635 135.48 815.283 134.184C815.955 132.864 816.903 131.844 818.127 131.124C819.351 130.404 820.779 130.044 822.411 130.044C823.371 130.044 824.271 130.212 825.111 130.548C825.951 130.884 826.659 131.304 827.235 131.808C827.835 132.288 828.231 132.768 828.423 133.248L828.495 130.476H832.167V146.892C832.167 149.7 831.447 151.86 830.007 153.372C828.567 154.884 826.335 155.64 823.311 155.64ZM823.239 144.084C824.607 144.084 825.759 143.616 826.695 142.68C827.631 141.72 828.099 140.472 828.099 138.936V138.684C828.099 137.652 827.883 136.728 827.451 135.912C827.019 135.096 826.431 134.46 825.687 134.004C824.943 133.548 824.127 133.32 823.239 133.32C821.703 133.32 820.515 133.824 819.675 134.832C818.835 135.816 818.415 137.1 818.415 138.684C818.415 140.292 818.823 141.6 819.639 142.608C820.479 143.592 821.679 144.084 823.239 144.084ZM844.854 147.36C843.15 147.36 841.638 146.976 840.318 146.208C838.998 145.44 837.978 144.396 837.258 143.076C836.538 141.756 836.178 140.292 836.178 138.684C836.178 137.1 836.526 135.648 837.222 134.328C837.942 133.008 838.962 131.964 840.282 131.196C841.602 130.428 843.126 130.044 844.854 130.044C846.582 130.044 848.094 130.428 849.39 131.196C850.71 131.964 851.718 133.008 852.414 134.328C853.134 135.648 853.494 137.1 853.494 138.684C853.494 140.292 853.134 141.756 852.414 143.076C851.694 144.396 850.674 145.44 849.354 146.208C848.058 146.976 846.558 147.36 844.854 147.36ZM844.962 144.192C846.354 144.192 847.446 143.676 848.238 142.644C849.054 141.612 849.462 140.316 849.462 138.756C849.462 137.196 849.03 135.888 848.166 134.832C847.302 133.752 846.162 133.212 844.746 133.212C843.378 133.212 842.274 133.74 841.434 134.796C840.618 135.852 840.21 137.172 840.21 138.756C840.21 140.292 840.654 141.588 841.542 142.644C842.43 143.676 843.57 144.192 844.962 144.192ZM863.334 147.36C862.182 147.36 860.982 147.216 859.734 146.928C858.51 146.616 857.634 146.256 857.106 145.848L858.402 142.788C859.842 143.796 861.486 144.3 863.334 144.3C865.182 144.3 866.106 143.76 866.106 142.68C866.106 142.2 865.914 141.828 865.53 141.564C865.146 141.3 864.462 140.988 863.478 140.628L862.11 140.124C860.67 139.548 859.53 138.864 858.69 138.072C857.85 137.256 857.43 136.188 857.43 134.868C857.43 133.356 858.018 132.18 859.194 131.34C860.394 130.476 861.99 130.044 863.982 130.044C864.966 130.044 865.926 130.152 866.862 130.368C867.822 130.584 868.554 130.86 869.058 131.196L867.654 134.292C867.342 133.98 866.838 133.716 866.142 133.5C865.47 133.26 864.714 133.14 863.874 133.14C862.17 133.14 861.318 133.656 861.318 134.688C861.318 135.264 861.546 135.708 862.002 136.02C862.458 136.308 863.202 136.632 864.234 136.992C864.33 137.016 864.702 137.148 865.35 137.388C866.886 137.988 868.026 138.672 868.77 139.44C869.514 140.208 869.886 141.192 869.886 142.392C869.886 144.024 869.262 145.26 868.014 146.1C866.79 146.94 865.23 147.36 863.334 147.36ZM880.119 130.476H884.547L888.111 137.928L889.263 140.916L890.415 137.928L893.943 130.476H898.263L889.587 147H888.831L880.119 130.476ZM908.03 147.36C906.326 147.36 904.814 146.976 903.494 146.208C902.174 145.44 901.154 144.396 900.434 143.076C899.714 141.756 899.354 140.292 899.354 138.684C899.354 137.1 899.702 135.648 900.398 134.328C901.118 133.008 902.138 131.964 903.458 131.196C904.778 130.428 906.302 130.044 908.03 130.044C909.758 130.044 911.27 130.428 912.566 131.196C913.886 131.964 914.894 133.008 915.59 134.328C916.31 135.648 916.67 137.1 916.67 138.684C916.67 140.292 916.31 141.756 915.59 143.076C914.87 144.396 913.85 145.44 912.53 146.208C911.234 146.976 909.734 147.36 908.03 147.36ZM908.138 144.192C909.53 144.192 910.622 143.676 911.414 142.644C912.23 141.612 912.638 140.316 912.638 138.756C912.638 137.196 912.206 135.888 911.342 134.832C910.478 133.752 909.338 133.212 907.922 133.212C906.554 133.212 905.45 133.74 904.61 134.796C903.794 135.852 903.386 137.172 903.386 138.756C903.386 140.292 903.83 141.588 904.718 142.644C905.606 143.676 906.746 144.192 908.138 144.192ZM921.146 120.54H924.998V147H921.146V120.54ZM931.894 133.644H928.978V130.476H931.894V123.744L935.818 122.88V130.476H939.634V133.644H935.818V147H931.894V133.644ZM950.102 147.36C948.614 147.36 947.234 147.012 945.962 146.316C944.714 145.596 943.706 144.588 942.938 143.292C942.194 141.972 941.822 140.436 941.822 138.684C941.822 136.956 942.146 135.444 942.794 134.148C943.466 132.852 944.414 131.844 945.638 131.124C946.862 130.404 948.302 130.044 949.958 130.044C950.918 130.044 951.818 130.212 952.658 130.548C953.498 130.884 954.206 131.304 954.782 131.808C955.358 132.288 955.742 132.768 955.934 133.248L956.006 130.476H959.714V147H956.042L955.97 144.084C955.562 144.948 954.818 145.716 953.738 146.388C952.658 147.036 951.446 147.36 950.102 147.36ZM950.75 144.12C952.118 144.12 953.27 143.652 954.206 142.716C955.142 141.756 955.61 140.508 955.61 138.972V138.72C955.61 137.688 955.394 136.764 954.962 135.948C954.53 135.132 953.942 134.496 953.198 134.04C952.454 133.584 951.638 133.356 950.75 133.356C949.214 133.356 948.026 133.86 947.186 134.868C946.346 135.852 945.926 137.136 945.926 138.72C945.926 140.328 946.334 141.636 947.15 142.644C947.99 143.628 949.19 144.12 950.75 144.12ZM972.251 147.36C970.763 147.36 969.383 147.012 968.111 146.316C966.863 145.596 965.855 144.588 965.087 143.292C964.343 141.972 963.971 140.436 963.971 138.684C963.971 136.068 964.703 133.98 966.167 132.42C967.631 130.836 969.611 130.044 972.107 130.044C973.499 130.044 974.771 130.392 975.923 131.088C977.075 131.76 977.855 132.576 978.263 133.536L978.083 130.728V120.54H981.899V147H978.191L978.119 144.084C977.711 144.948 976.967 145.716 975.887 146.388C974.807 147.036 973.595 147.36 972.251 147.36ZM972.899 144.084C974.267 144.084 975.419 143.616 976.355 142.68C977.291 141.72 977.759 140.472 977.759 138.936V138.684C977.759 137.652 977.543 136.728 977.111 135.912C976.679 135.096 976.091 134.46 975.347 134.004C974.603 133.548 973.787 133.32 972.899 133.32C971.363 133.32 970.175 133.824 969.335 134.832C968.495 135.816 968.075 137.1 968.075 138.684C968.075 140.292 968.483 141.6 969.299 142.608C970.139 143.592 971.339 144.084 972.899 144.084ZM994.76 147.36C993.056 147.36 991.544 146.976 990.224 146.208C988.904 145.44 987.884 144.396 987.164 143.076C986.444 141.756 986.084 140.292 986.084 138.684C986.084 137.1 986.432 135.648 987.128 134.328C987.848 133.008 988.868 131.964 990.188 131.196C991.508 130.428 993.032 130.044 994.76 130.044C996.488 130.044 998 130.428 999.296 131.196C1000.62 131.964 1001.62 133.008 1002.32 134.328C1003.04 135.648 1003.4 137.1 1003.4 138.684C1003.4 140.292 1003.04 141.756 1002.32 143.076C1001.6 144.396 1000.58 145.44 999.26 146.208C997.964 146.976 996.464 147.36 994.76 147.36ZM994.868 144.192C996.26 144.192 997.352 143.676 998.144 142.644C998.96 141.612 999.368 140.316 999.368 138.756C999.368 137.196 998.936 135.888 998.072 134.832C997.208 133.752 996.068 133.212 994.652 133.212C993.284 133.212 992.18 133.74 991.34 134.796C990.524 135.852 990.116 137.172 990.116 138.756C990.116 140.292 990.56 141.588 991.448 142.644C992.336 143.676 993.476 144.192 994.868 144.192ZM1013.24 147.36C1012.09 147.36 1010.89 147.216 1009.64 146.928C1008.42 146.616 1007.54 146.256 1007.01 145.848L1008.31 142.788C1009.75 143.796 1011.39 144.3 1013.24 144.3C1015.09 144.3 1016.01 143.76 1016.01 142.68C1016.01 142.2 1015.82 141.828 1015.44 141.564C1015.05 141.3 1014.37 140.988 1013.38 140.628L1012.02 140.124C1010.58 139.548 1009.44 138.864 1008.6 138.072C1007.76 137.256 1007.34 136.188 1007.34 134.868C1007.34 133.356 1007.92 132.18 1009.1 131.34C1010.3 130.476 1011.9 130.044 1013.89 130.044C1014.87 130.044 1015.83 130.152 1016.77 130.368C1017.73 130.584 1018.46 130.86 1018.96 131.196L1017.56 134.292C1017.25 133.98 1016.74 133.716 1016.05 133.5C1015.38 133.26 1014.62 133.14 1013.78 133.14C1012.08 133.14 1011.22 133.656 1011.22 134.688C1011.22 135.264 1011.45 135.708 1011.91 136.02C1012.36 136.308 1013.11 136.632 1014.14 136.992C1014.24 137.016 1014.61 137.148 1015.26 137.388C1016.79 137.988 1017.93 138.672 1018.68 139.44C1019.42 140.208 1019.79 141.192 1019.79 142.392C1019.79 144.024 1019.17 145.26 1017.92 146.1C1016.7 146.94 1015.14 147.36 1013.24 147.36ZM1039.96 147.36C1038.47 147.36 1037.09 147.012 1035.82 146.316C1034.57 145.596 1033.57 144.588 1032.8 143.292C1032.05 141.972 1031.68 140.436 1031.68 138.684C1031.68 136.956 1032.01 135.444 1032.65 134.148C1033.33 132.852 1034.27 131.844 1035.5 131.124C1036.72 130.404 1038.16 130.044 1039.82 130.044C1040.78 130.044 1041.68 130.212 1042.52 130.548C1043.36 130.884 1044.07 131.304 1044.64 131.808C1045.22 132.288 1045.6 132.768 1045.79 133.248L1045.87 130.476H1049.57V147H1045.9L1045.83 144.084C1045.42 144.948 1044.68 145.716 1043.6 146.388C1042.52 147.036 1041.31 147.36 1039.96 147.36ZM1040.61 144.12C1041.98 144.12 1043.13 143.652 1044.07 142.716C1045 141.756 1045.47 140.508 1045.47 138.972V138.72C1045.47 137.688 1045.25 136.764 1044.82 135.948C1044.39 135.132 1043.8 134.496 1043.06 134.04C1042.31 133.584 1041.5 133.356 1040.61 133.356C1039.07 133.356 1037.89 133.86 1037.05 134.868C1036.21 135.852 1035.79 137.136 1035.79 138.72C1035.79 140.328 1036.19 141.636 1037.01 142.644C1037.85 143.628 1039.05 144.12 1040.61 144.12ZM1034.78 119.856L1038.2 117.66L1043.71 125.904L1041.08 127.38L1034.78 119.856ZM1069.31 147.36C1068.16 147.36 1066.96 147.216 1065.71 146.928C1064.49 146.616 1063.61 146.256 1063.09 145.848L1064.38 142.788C1065.82 143.796 1067.47 144.3 1069.31 144.3C1071.16 144.3 1072.09 143.76 1072.09 142.68C1072.09 142.2 1071.89 141.828 1071.51 141.564C1071.13 141.3 1070.44 140.988 1069.46 140.628L1068.09 140.124C1066.65 139.548 1065.51 138.864 1064.67 138.072C1063.83 137.256 1063.41 136.188 1063.41 134.868C1063.41 133.356 1064 132.18 1065.17 131.34C1066.37 130.476 1067.97 130.044 1069.96 130.044C1070.95 130.044 1071.91 130.152 1072.84 130.368C1073.8 130.584 1074.53 130.86 1075.04 131.196L1073.63 134.292C1073.32 133.98 1072.82 133.716 1072.12 133.5C1071.45 133.26 1070.69 133.14 1069.85 133.14C1068.15 133.14 1067.3 133.656 1067.3 134.688C1067.3 135.264 1067.53 135.708 1067.98 136.02C1068.44 136.308 1069.18 136.632 1070.21 136.992C1070.31 137.016 1070.68 137.148 1071.33 137.388C1072.87 137.988 1074.01 138.672 1074.75 139.44C1075.49 140.208 1075.87 141.192 1075.87 142.392C1075.87 144.024 1075.24 145.26 1073.99 146.1C1072.77 146.94 1071.21 147.36 1069.31 147.36ZM1087.21 147.36C1085.72 147.36 1084.34 147.012 1083.07 146.316C1081.82 145.596 1080.82 144.588 1080.05 143.292C1079.3 141.972 1078.93 140.436 1078.93 138.684C1078.93 136.956 1079.26 135.444 1079.9 134.148C1080.58 132.852 1081.52 131.844 1082.75 131.124C1083.97 130.404 1085.41 130.044 1087.07 130.044C1088.03 130.044 1088.93 130.212 1089.77 130.548C1090.61 130.884 1091.32 131.304 1091.89 131.808C1092.47 132.288 1092.85 132.768 1093.04 133.248L1093.12 130.476H1096.82V147H1093.15L1093.08 144.084C1092.67 144.948 1091.93 145.716 1090.85 146.388C1089.77 147.036 1088.56 147.36 1087.21 147.36ZM1087.86 144.12C1089.23 144.12 1090.38 143.652 1091.32 142.716C1092.25 141.756 1092.72 140.508 1092.72 138.972V138.72C1092.72 137.688 1092.5 136.764 1092.07 135.948C1091.64 135.132 1091.05 134.496 1090.31 134.04C1089.56 133.584 1088.75 133.356 1087.86 133.356C1086.32 133.356 1085.14 133.86 1084.3 134.868C1083.46 135.852 1083.04 137.136 1083.04 138.72C1083.04 140.328 1083.44 141.636 1084.26 142.644C1085.1 143.628 1086.3 144.12 1087.86 144.12ZM1107.78 147.36C1105.5 147.36 1103.92 146.688 1103.06 145.344C1102.22 144 1101.8 142.128 1101.8 139.728V130.476H1105.69V138.756C1105.69 140.124 1105.76 141.192 1105.9 141.96C1106.07 142.704 1106.38 143.256 1106.84 143.616C1107.32 143.976 1108.03 144.156 1108.96 144.156C1109.64 144.156 1110.28 143.964 1110.91 143.58C1111.53 143.196 1112.04 142.68 1112.42 142.032C1112.83 141.36 1113.03 140.628 1113.03 139.836V130.476H1116.88V147H1113.72L1113.28 144.588C1112.68 145.524 1111.93 146.22 1111.02 146.676C1110.13 147.132 1109.05 147.36 1107.78 147.36ZM1106.44 125.904L1111.95 117.66L1115.37 119.856L1109.07 127.38L1106.44 125.904ZM1129.36 147.36C1127.88 147.36 1126.5 147.012 1125.22 146.316C1123.98 145.596 1122.97 144.588 1122.2 143.292C1121.46 141.972 1121.08 140.436 1121.08 138.684C1121.08 136.068 1121.82 133.98 1123.28 132.42C1124.74 130.836 1126.72 130.044 1129.22 130.044C1130.61 130.044 1131.88 130.392 1133.04 131.088C1134.19 131.76 1134.97 132.576 1135.38 133.536L1135.2 130.728V120.54H1139.01V147H1135.3L1135.23 144.084C1134.82 144.948 1134.08 145.716 1133 146.388C1131.92 147.036 1130.71 147.36 1129.36 147.36ZM1130.01 144.084C1131.38 144.084 1132.53 143.616 1133.47 142.68C1134.4 141.72 1134.87 140.472 1134.87 138.936V138.684C1134.87 137.652 1134.66 136.728 1134.22 135.912C1133.79 135.096 1133.2 134.46 1132.46 134.004C1131.72 133.548 1130.9 133.32 1130.01 133.32C1128.48 133.32 1127.29 133.824 1126.45 134.832C1125.61 135.816 1125.19 137.1 1125.19 138.684C1125.19 140.292 1125.6 141.6 1126.41 142.608C1127.25 143.592 1128.45 144.084 1130.01 144.084ZM1151.98 147.36C1150.01 147.36 1148.37 146.976 1147.05 146.208C1145.73 145.416 1144.76 144.372 1144.13 143.076C1143.51 141.756 1143.2 140.316 1143.2 138.756C1143.2 137.004 1143.56 135.468 1144.28 134.148C1145.02 132.828 1146.04 131.82 1147.34 131.124C1148.63 130.404 1150.1 130.044 1151.73 130.044C1154.27 130.044 1156.16 130.752 1157.38 132.168C1158.63 133.56 1159.25 135.528 1159.25 138.072C1159.25 138.72 1159.22 139.392 1159.15 140.088H1147.27C1147.53 141.552 1148.05 142.608 1148.81 143.256C1149.61 143.904 1150.7 144.228 1152.09 144.228C1153.24 144.228 1154.19 144.132 1154.93 143.94C1155.68 143.748 1156.36 143.484 1156.99 143.148L1158.17 145.92C1157.57 146.304 1156.76 146.64 1155.73 146.928C1154.69 147.216 1153.45 147.36 1151.98 147.36ZM1155.47 137.388C1155.5 135.9 1155.17 134.856 1154.5 134.256C1153.83 133.632 1152.87 133.32 1151.62 133.32C1149.1 133.32 1147.65 134.676 1147.27 137.388H1155.47ZM1165.99 147.36C1165.27 147.36 1164.66 147.12 1164.16 146.64C1163.65 146.136 1163.4 145.524 1163.4 144.804C1163.4 144.06 1163.64 143.448 1164.12 142.968C1164.63 142.464 1165.25 142.212 1165.99 142.212C1166.74 142.212 1167.35 142.464 1167.83 142.968C1168.33 143.448 1168.59 144.06 1168.59 144.804C1168.59 145.524 1168.33 146.136 1167.83 146.64C1167.35 147.12 1166.74 147.36 1165.99 147.36Z" fill="black"/>
<path d="M462.702 282.864H422.19V342H401.07V207.6H422.19V262.704H462.702V207.6H483.63V342H462.702V282.864ZM513.945 207.6H578.073V228.72H535.065V262.704H561.369L555.417 282.864H535.065V322.8H577.689V342H513.945V207.6ZM654.459 306.864H623.547L616.059 342H592.251L623.739 207.6H653.499L687.483 342H662.331L654.459 306.864ZM628.539 284.4H649.467L638.523 242.928L628.539 284.4ZM704.445 207.6H725.565V322.608H773.757V342H704.445V207.6ZM792.492 228.912H764.844V207.6H842.028V228.912H813.612V342H792.492V228.912ZM918.702 282.864H878.19V342H857.07V207.6H878.19V262.704H918.702V207.6H939.63V342H918.702V282.864ZM969.945 207.6H1034.07V228.72H991.065V262.704H1017.94L1011.03 282.864H991.065V342H969.945V207.6ZM1136.63 207.408V306.288C1136.63 319.216 1132.67 328.624 1124.73 334.512C1116.92 340.4 1107.45 343.344 1096.31 343.344C1085.18 343.344 1075.64 340.4 1067.71 334.512C1059.77 328.624 1055.8 319.216 1055.8 306.288V207.408H1076.92V297.84C1076.92 306.544 1078.2 312.88 1080.76 316.848C1083.45 320.688 1088.57 322.608 1096.12 322.608C1103.8 322.608 1108.92 320.688 1111.48 316.848C1114.17 312.88 1115.51 306.544 1115.51 297.84V207.408H1136.63ZM1165.32 207.6H1186.44V322.608H1234.63V342H1165.32V207.6Z" fill="black"/>
<path fill-rule="evenodd" clip-rule="evenodd" d="M203 244.076C203 254.892 206.534 264.818 212.426 272.586C227.551 298.406 249.254 317.316 280.619 344.644L282 345.847C311.672 320.608 330.234 302.667 342.945 285.556L272.118 325.798L313.247 269.884L287.978 274.762L318.906 233.349L297.867 237.127L337.244 203.548C331.648 200.635 325.359 199 318.712 199C302.682 199 288.735 208.507 281.564 222.52C274.471 208.507 260.677 199 244.824 199C221.725 199 203 219.181 203 244.076ZM348.893 212.502L336.779 242.469L360.615 237.967C359.362 228.109 355.119 219.264 348.893 212.502ZM360.675 238.455L329.65 280.287L347.24 279.477C348.919 276.971 350.485 274.467 351.953 271.943C357.62 264.274 361 254.596 361 244.076C361 242.173 360.889 240.297 360.675 238.455Z" fill="url(#paint0_linear_502_469)"/>
<defs>
<linearGradient id="paint0_linear_502_469" x1="282" y1="199" x2="282" y2="345.847" gradientUnits="userSpaceOnUse">
<stop stop-color="#19FF00"/>
<stop offset="0.723958" stop-color="#0F7A04"/>
<stop offset="0.724058" stop-color="#0F7A04"/>
</linearGradient>
</defs>
</svg>
