<svg width="356" height="331" viewBox="0 0 356 331" fill="none" xmlns="http://www.w3.org/2000/svg">
<path fill-rule="evenodd" clip-rule="evenodd" d="M356 101.565C356 125.257 348.389 147.055 335.632 164.332C332.319 170.025 328.787 175.676 324.999 181.329L285.363 183.152L355.266 88.9003C355.751 93.0494 356 97.2762 356 101.565ZM355.132 87.7986C352.309 65.5885 342.75 45.6588 328.72 30.4231L301.426 97.9429L355.132 87.7986ZM302.474 10.2468L213.75 85.9068L261.155 77.3937L191.469 170.704L248.406 159.714L155.735 285.698L315.325 195.023C286.685 233.576 244.861 274.003 178.001 330.872L174.891 328.161L174.89 328.161C104.225 266.59 55.3254 223.985 21.2458 165.812C7.96629 148.308 0 125.939 0 101.565C0 45.4724 42.1907 0.000132066 94.2357 0.000132066C129.956 0.000132066 161.035 21.4203 177.017 52.9928C193.176 21.4202 224.6 0 260.717 0C275.694 0 289.865 3.68343 302.474 10.2468Z" fill="url(#paint0_linear_302_157)"/>
<defs>
<linearGradient id="paint0_linear_302_157" x1="178" y1="0" x2="178" y2="330.872" gradientUnits="userSpaceOnUse">
<stop stop-color="#19FF00"/>
<stop offset="0.723958" stop-color="#0F7A04"/>
</linearGradient>
</defs>
</svg>
