<svg width="1032" height="230" viewBox="0 0 1032 230" fill="none" xmlns="http://www.w3.org/2000/svg">
<path d="M259.702 125.864H219.19V185H198.07V50.6H219.19V105.704H259.702V50.6H280.63V185H259.702V125.864ZM310.945 50.6H375.073V71.72H332.065V105.704H358.369L352.417 125.864H332.065V165.8H374.689V185H310.945V50.6ZM451.459 149.864H420.547L413.059 185H389.251L420.739 50.6H450.499L484.483 185H459.331L451.459 149.864ZM425.539 127.4H446.467L435.523 85.928L425.539 127.4ZM501.445 50.6H522.565V165.608H570.757V185H501.445V50.6ZM589.492 71.912H561.844V50.6H639.028V71.912H610.612V185H589.492V71.912ZM715.702 125.864H675.19V185H654.07V50.6H675.19V105.704H715.702V50.6H736.63V185H715.702V125.864ZM766.945 50.6H831.073V71.72H788.065V105.704H814.945L808.033 125.864H788.065V185H766.945V50.6ZM933.634 50.408V149.288C933.634 162.216 929.666 171.624 921.73 177.512C913.922 183.4 904.45 186.344 893.314 186.344C882.178 186.344 872.642 183.4 864.706 177.512C856.77 171.624 852.802 162.216 852.802 149.288V50.408H873.922V140.84C873.922 149.544 875.202 155.88 877.762 159.848C880.45 163.688 885.57 165.608 893.122 165.608C900.802 165.608 905.922 163.688 908.482 159.848C911.17 155.88 912.514 149.544 912.514 140.84V50.408H933.634ZM962.32 50.6H983.44V165.608H1031.63V185H962.32V50.6Z" fill="black"/>
<path fill-rule="evenodd" clip-rule="evenodd" d="M0 87.0765C0 97.892 3.53421 107.818 9.42582 115.586C24.5511 141.406 46.2543 160.316 77.619 187.644L78.9996 188.847C108.672 163.608 127.234 145.667 139.945 128.556L69.1183 168.798L110.247 112.884L84.9779 117.762L115.906 76.3491L94.8666 80.1274L134.244 46.5477C128.648 43.6348 122.359 42 115.712 42C99.6821 42 85.7354 51.5071 78.5636 65.52C71.4707 51.507 57.6772 42 41.8235 42C18.725 42 0 62.1814 0 87.0765ZM145.893 55.5021L133.779 85.4692L157.615 80.9669C156.362 71.1094 152.119 62.264 145.893 55.5021ZM157.675 81.4553L126.65 123.287L144.24 122.477C145.919 119.971 147.485 117.467 148.953 114.943C154.62 107.274 158 97.5959 158 87.0765C158 85.1729 157.889 83.2969 157.675 81.4553Z" fill="url(#paint0_linear_553_54)"/>
<defs>
<linearGradient id="paint0_linear_553_54" x1="79" y1="42" x2="79" y2="188.847" gradientUnits="userSpaceOnUse">
<stop stop-color="#19FF00"/>
<stop offset="0.723958" stop-color="#0F7A04"/>
<stop offset="0.724058" stop-color="#0F7A04"/>
</linearGradient>
</defs>
</svg>
