<svg width="212" height="114" viewBox="0 0 212 114" fill="none" xmlns="http://www.w3.org/2000/svg">
<path fill-rule="evenodd" clip-rule="evenodd" d="M66 23.1088C66 28.6518 67.8108 33.739 70.8295 37.7208C78.5837 50.9597 89.7105 60.6545 105.791 74.6655L105.791 74.6656L106.499 75.2823C125.762 58.8977 135.891 48.5119 142.362 37.3939C145.266 33.4624 146.999 28.5014 146.999 23.1089C146.999 16.8055 144.631 11.0915 140.792 6.9224L134.582 22.2851L146.802 19.977C146.812 20.0605 146.823 20.1441 146.832 20.2278L130.927 41.6726L139.945 41.2577C139.25 42.2943 138.518 43.3314 137.743 44.3746L101.433 65.0045L122.519 36.3397L109.564 38.8401L125.419 17.6096L114.634 19.5466L134.821 2.3317C131.952 0.838259 128.728 0.000119511 125.32 0.000119511C117.102 0.000119511 109.953 4.87353 106.276 12.0568C102.639 4.87347 95.5684 0 87.4412 0C75.5995 0 66 10.3462 66 23.1088Z" fill="white"/>
<path d="M2.22697 88.4H11.579V91.48H5.30697V96.436H9.14297L8.27497 99.376H5.30697V105.2H11.523V108H2.22697V88.4ZM24.7346 111.248C22.1213 111.323 20.4319 110.315 19.6666 108.224C18.3973 108.075 17.2679 107.589 16.2786 106.768C15.3079 105.928 14.8226 104.612 14.8226 102.82V93.804C14.8226 91.8813 15.3453 90.4253 16.3906 89.436C17.4546 88.4467 18.9106 87.952 20.7586 87.952C22.6066 87.952 24.0346 88.4747 25.0426 89.52C26.0693 90.5653 26.5826 92.0027 26.5826 93.832V102.82C26.5826 104.388 26.1906 105.592 25.4066 106.432C24.6413 107.272 23.7733 107.785 22.8026 107.972C23.0453 108.252 23.3159 108.429 23.6146 108.504C23.9319 108.579 24.4359 108.616 25.1266 108.616L24.7346 111.248ZM23.5026 93.86C23.5026 93.188 23.3066 92.5813 22.9146 92.04C22.5226 91.4987 21.7853 91.228 20.7026 91.228C19.5826 91.228 18.8359 91.4707 18.4626 91.956C18.0893 92.4227 17.9026 93.0573 17.9026 93.86V102.792C17.9026 103.296 17.9773 103.819 18.1266 104.36C18.2759 104.901 18.6213 105.172 19.1626 105.172C19.1253 104.873 19.1066 104.659 19.1066 104.528L19.1346 103.632V103.128H22.2146V103.604V104.192C22.2146 104.304 22.2053 104.444 22.1866 104.612C22.1866 104.761 22.1959 104.939 22.2146 105.144C22.7746 105.144 23.1293 104.901 23.2786 104.416C23.4279 103.931 23.5026 103.38 23.5026 102.764V93.86ZM41.1647 88.372V102.792C41.1647 104.677 40.586 106.049 39.4287 106.908C38.29 107.767 36.9087 108.196 35.2847 108.196C33.6607 108.196 32.27 107.767 31.1127 106.908C29.9554 106.049 29.3767 104.677 29.3767 102.792V88.372H32.4567V101.56C32.4567 102.829 32.6434 103.753 33.0167 104.332C33.4087 104.892 34.1554 105.172 35.2567 105.172C36.3767 105.172 37.1234 104.892 37.4967 104.332C37.8887 103.753 38.0847 102.829 38.0847 101.56V88.372H41.1647ZM46.6081 91.424L44.8721 91.368V88.4H49.6881V108H46.6081V91.424ZM54.1254 88.4H60.5094C62.4694 88.4 63.9161 89.0347 64.8494 90.304C65.8014 91.5547 66.2774 93.132 66.2774 95.036C66.2774 100.039 64.4387 102.54 60.7614 102.54H57.2054V108H54.1254V88.4ZM59.8374 99.6C60.9014 99.6 61.6761 99.3667 62.1614 98.9C62.6654 98.4333 62.9641 97.9107 63.0574 97.332C63.1507 96.7347 63.1974 95.988 63.1974 95.092C63.1974 94.1027 63.0574 93.3467 62.7774 92.824C62.5161 92.2827 62.1334 91.928 61.6294 91.76C61.1441 91.5733 60.5094 91.48 59.7254 91.48H57.2054V99.6H59.8374ZM69.5473 88.4H78.8993V91.48H72.6273V96.436H76.4633L75.5953 99.376H72.6273V105.2H78.8433V108H69.5473V88.4ZM99.3439 99.376H93.4359V108H90.3559V88.4H93.4359V96.436H99.3439V88.4H102.396V108H99.3439V99.376ZM106.817 88.4H116.169V91.48H109.897V96.436H113.733L112.865 99.376H109.897V105.2H116.113V108H106.817V88.4ZM127.308 102.876H122.8L121.708 108H118.236L122.828 88.4H127.168L132.124 108H128.456L127.308 102.876ZM123.528 99.6H126.58L124.984 93.552L123.528 99.6ZM134.598 88.4H137.678V105.172H144.706V108H134.598V88.4ZM147.438 91.508H143.406V88.4H154.662V91.508H150.518V108H147.438V91.508ZM165.844 99.376H159.936V108H156.856V88.4H159.936V96.436H165.844V88.4H168.896V108H165.844V99.376ZM173.317 88.4H182.669V91.48H176.397V96.436H180.317L179.309 99.376H176.397V108H173.317V88.4ZM197.626 88.372V102.792C197.626 104.677 197.047 106.049 195.89 106.908C194.751 107.767 193.37 108.196 191.746 108.196C190.122 108.196 188.731 107.767 187.574 106.908C186.416 106.049 185.838 104.677 185.838 102.792V88.372H188.918V101.56C188.918 102.829 189.104 103.753 189.478 104.332C189.87 104.892 190.616 105.172 191.718 105.172C192.838 105.172 193.584 104.892 193.958 104.332C194.35 103.753 194.546 102.829 194.546 101.56V88.372H197.626ZM201.809 88.4H204.889V105.172H211.917V108H201.809V88.4Z" fill="white"/>
</svg>
