<svg width="209" height="194" viewBox="0 0 209 194" fill="none" xmlns="http://www.w3.org/2000/svg">
<path fill-rule="evenodd" clip-rule="evenodd" d="M0 59.4495C0 73.7106 4.65911 86.7988 12.4263 97.0426C32.3746 131.1 60.9991 156.04 102.367 192.084L102.368 192.085L104.188 193.671C143.322 160.385 167.802 136.723 184.566 114.157L91.1562 167.231L145.4 93.4878L112.073 99.9204L152.862 45.3029L125.115 50.2859L177.05 5.9976C169.669 2.15596 161.375 0 152.609 0C131.467 0 113.073 12.5388 103.615 31.0204C94.2603 12.5388 76.0685 0 55.1593 0C24.6957 0 0 26.6165 0 59.4495ZM192.412 17.8062L176.434 57.3311L207.873 51.3927C206.22 38.3912 200.625 26.7246 192.412 17.8062ZM207.951 52.0348L167.032 107.207L190.231 106.14C192.443 102.837 194.507 99.5367 196.443 96.2106C203.92 86.0945 208.381 73.3273 208.381 59.4495C208.381 56.9385 208.235 54.4639 207.951 52.0348Z" fill="url(#paint0_linear_554_54)"/>
<defs>
<linearGradient id="paint0_linear_554_54" x1="104.19" y1="0" x2="104.19" y2="193.671" gradientUnits="userSpaceOnUse">
<stop stop-color="#19FF00"/>
<stop offset="0.723958" stop-color="#0F7A04"/>
<stop offset="0.724058" stop-color="#0F7A04"/>
</linearGradient>
</defs>
</svg>
